<svg width="12" height="13" viewBox="0 0 12 13" fill="none" xmlns="http://www.w3.org/2000/svg">
<path d="M5.88 7.34C5.94627 7.27373 6.05373 7.27373 6.12 7.34L10.92 12.14C11.1188 12.3388 11.4412 12.3388 11.64 12.14C11.8388 11.9412 11.8388 11.6188 11.64 11.42L6.84 6.62C6.77373 6.55373 6.77373 6.44627 6.84 6.38L11.64 1.58C11.8388 1.38118 11.8388 1.05882 11.64 0.86C11.4412 0.661177 11.1188 0.661178 10.92 0.86L6.12 5.66C6.05373 5.72627 5.94627 5.72627 5.88 5.66L1.08 0.86C0.881177 0.661177 0.558823 0.661177 0.36 0.86C0.161177 1.05882 0.161178 1.38118 0.36 1.58L5.16 6.38C5.22627 6.44627 5.22627 6.55373 5.16 6.62L0.36 11.42C0.161177 11.6188 0.161177 11.9412 0.36 12.14C0.558823 12.3388 0.881178 12.3388 1.08 12.14L5.88 7.34Z" fill="#828282"/>
</svg>
