<svg width="48" height="48" viewBox="0 0 48 48" fill="none" xmlns="http://www.w3.org/2000/svg">
<path d="M22.2679 3C23.0377 1.66667 24.9622 1.66667 25.732 3L43.0526 33C43.8224 34.3333 42.8601 36 41.3205 36H6.67949C5.13989 36 4.17764 34.3333 4.94744 33L22.2679 3Z" fill="#F2C94C"/>
<path d="M25.4766 24.7617H22.6641L22.2656 12.9375H25.875L25.4766 24.7617ZM24.0703 26.6133C24.6406 26.6133 25.0977 26.7812 25.4414 27.1172C25.793 27.4531 25.9688 27.8828 25.9688 28.4062C25.9688 28.9219 25.793 29.3477 25.4414 29.6836C25.0977 30.0195 24.6406 30.1875 24.0703 30.1875C23.5078 30.1875 23.0508 30.0195 22.6992 29.6836C22.3555 29.3477 22.1836 28.9219 22.1836 28.4062C22.1836 27.8906 22.3555 27.4648 22.6992 27.1289C23.0508 26.7852 23.5078 26.6133 24.0703 26.6133Z" fill="white"/>
</svg>
